<?xml version="1.0" encoding="UTF-8" standalone="no"?>
<!-- Created with Inkscape (http://www.inkscape.org/) -->

<svg
   width="150.47304mm"
   height="34.999359mm"
   viewBox="0 0 150.47304 34.999359"
   version="1.1"
   id="svg1"
   xml:space="preserve"
   inkscape:version="1.2.2 (b0a8486541, 2022-12-01)"
   sodipodi:docname="handle.svg"
   xmlns:inkscape="http://www.inkscape.org/namespaces/inkscape"
   xmlns:sodipodi="http://sodipodi.sourceforge.net/DTD/sodipodi-0.dtd"
   xmlns="http://www.w3.org/2000/svg"
   xmlns:svg="http://www.w3.org/2000/svg"><sodipodi:namedview
     id="namedview1"
     pagecolor="#ffffff"
     bordercolor="#000000"
     borderopacity="0.25"
     inkscape:showpageshadow="2"
     inkscape:pageopacity="0.0"
     inkscape:pagecheckerboard="0"
     inkscape:deskcolor="#d1d1d1"
     inkscape:document-units="mm"
     inkscape:zoom="1.4378367"
     inkscape:cx="372.08676"
     inkscape:cy="4.8684249"
     inkscape:window-width="1920"
     inkscape:window-height="1011"
     inkscape:window-x="0"
     inkscape:window-y="0"
     inkscape:window-maximized="1"
     inkscape:current-layer="layer1"
     showgrid="false" /><defs
     id="defs1" /><g
     inkscape:label="Layer 1"
     inkscape:groupmode="layer"
     id="layer1"
     transform="translate(-48.929062,-96.099985)"><path
       style="vector-effect:non-scaling-stroke;fill:none;stroke:#000000;stroke-width:0.238165;stroke-dasharray:none;stroke-opacity:1;-inkscape-stroke:hairline"
       d="m 199.40205,97.529355 c 0.002,-0.40302 -0.0607,-0.89803 -0.13385,-1.42937 H 48.929062 c 1.2e-4,19.186065 0.04954,34.921435 0.11007,34.970475 0.06059,0.0491 1.35621,0.0341 2.87889,-0.0336 2.29108,-0.10182 3.02565,-0.22517 4.25917,-0.71417 0.90131,-0.35731 1.89967,-0.98626 2.52543,-1.59163 0.56918,-0.55062 2.08558,-2.077 3.36982,-3.39153 1.28423,-1.31451 3.4063,-3.47138 4.71599,-4.7935 1.30968,-1.32212 2.64466,-2.69877 2.96675,-3.05925 0.3221,-0.3605 0.68395,-0.71171 0.80408,-0.78031 0.12013,-0.0686 0.80923,-0.74895 1.53117,-1.51205 0.72194,-0.7631 2.092599,-2.16923 3.045809,-3.12436 0.95321,-0.95514 2.20338,-2.0706 2.77813,-2.47892 0.57476,-0.40832 1.54989,-1.00529 2.16731,-1.32653 0.61741,-0.32122 1.80804,-0.83165 2.64583,-1.1343 0.83779,-0.30266 2.45051,-0.78927 3.58376,-1.08159 1.13325,-0.29232 2.97273,-0.67309 4.08761,-0.84594 1.11489,-0.17284 2.747641,-0.36388 3.628201,-0.42478 0.88057,-0.0609 1.89558,-0.16243 2.25568,-0.22583 0.3601,-0.0635 3.37783,-0.10822 6.706048,-0.0992 3.32822,0.009 6.12922,0.053 6.22442,0.0982 0.0952,0.0452 1.30421,0.14617 2.68666,0.22427 1.38244,0.0781 3.64463,0.23529 5.02708,0.34934 1.38245,0.11405 3.88276,0.35642 5.55625,0.53847 1.67349,0.18203 5.90021,0.70698 9.39271,1.16633 3.49251,0.45936 8.61219,1.12436 11.37709,1.47795 2.76489,0.35359 6.03911,0.74763 7.27604,0.8754 1.23693,0.12777 2.66568,0.27242 3.175,0.32142 0.50932,0.049 2.29526,0.21142 3.96875,0.36071 1.77301,0.15818 6.29976,0.2702 10.84792,0.2682 4.52743,-0.002 8.8052,-0.11121 10.18645,-0.25994 1.30969,-0.14102 3.15516,-0.34395 4.10105,-0.45113 0.94588,-0.10718 2.73182,-0.50252 3.96875,-0.8785 1.23692,-0.37599 2.96333,-0.95174 3.83645,-1.27951 0.87313,-0.32778 2.34438,-1.05884 3.26957,-1.62419 0.9252,-0.56534 2.16387,-1.51822 2.75229,-2.1177 0.58842,-0.59949 1.34051,-1.57206 1.67173,-2.16162 0.33122,-0.58956 0.74332,-1.664475 0.91519,-2.388485 0.11817,-0.4978 0.17767,-0.94288 0.17984,-1.44281 z"
       id="path1" /></g></svg>
